<svg width="11" height="10" viewBox="0 0 11 10" fill="none" xmlns="http://www.w3.org/2000/svg">
<g clip-path="url(#clip0_81_1541)">
<path d="M10.1032 1.49934C9.96268 1.3373 9.73071 1.30164 9.5508 1.40291L9.47756 1.45479L5.54018 4.86726C5.43954 4.95448 5.38314 5.08206 5.38698 5.21516C5.39092 5.34838 5.45464 5.47333 5.56032 5.55452L9.4977 8.57942L9.574 8.62642C9.75959 8.71693 9.98957 8.66775 10.1203 8.49763C10.2694 8.30334 10.2326 8.02497 10.0385 7.87569L6.53261 5.18098L10.0586 2.12495L10.1203 2.05964C10.2459 1.89594 10.2436 1.66138 10.1032 1.49934Z" fill="#C8667A"/>
<path d="M5.46547 1.49934C5.32498 1.3373 5.09301 1.30164 4.91311 1.40291L4.83986 1.45479L0.902487 4.86726C0.801849 4.95448 0.745449 5.08206 0.749288 5.21516C0.75322 5.34838 0.816943 5.47333 0.922628 5.55452L4.86001 8.57942L4.9363 8.62642C5.1219 8.71693 5.35187 8.66775 5.48256 8.49763C5.63167 8.30334 5.59495 8.02497 5.40078 7.87569L1.89492 5.18098L5.42092 2.12495L5.48256 2.05964C5.60823 1.89594 5.60591 1.66138 5.46547 1.49934Z" fill="#C8667A"/>
</g>
<defs>
<clipPath id="clip0_81_1541">
<rect width="10" height="10" fill="white" transform="matrix(-1 0 0 1 10.5 0)"/>
</clipPath>
</defs>
</svg>
