<svg width="10" height="11" viewBox="0 0 10 11" fill="none" xmlns="http://www.w3.org/2000/svg">
<path d="M0.39683 1.99934C0.537324 1.8373 0.769293 1.80164 0.949198 1.90291L1.02244 1.95479L4.95982 5.36726C5.06046 5.45448 5.11686 5.58206 5.11302 5.71516C5.10908 5.84838 5.04536 5.97333 4.93968 6.05452L1.0023 9.07942L0.926005 9.12642C0.74041 9.21693 0.51043 9.16775 0.37974 8.99763C0.230632 8.80334 0.267355 8.52497 0.461527 8.37569L3.96739 5.68098L0.441386 2.62495L0.37974 2.55964C0.25407 2.39594 0.256399 2.16138 0.39683 1.99934Z" fill="#C8667A"/>
<path d="M5.03453 1.99934C5.17502 1.8373 5.40699 1.80164 5.58689 1.90291L5.66014 1.95479L9.59751 5.36726C9.69815 5.45448 9.75455 5.58206 9.75071 5.71516C9.74678 5.84838 9.68306 5.97333 9.57737 6.05452L5.63999 9.07942L5.5637 9.12642C5.3781 9.21693 5.14813 9.16775 5.01744 8.99763C4.86833 8.80334 4.90505 8.52497 5.09922 8.37569L8.60508 5.68098L5.07908 2.62495L5.01744 2.55964C4.89177 2.39594 4.89409 2.16138 5.03453 1.99934Z" fill="#C8667A"/>
</svg>
