<svg width="20" height="21" viewBox="0 0 20 21" fill="none" xmlns="http://www.w3.org/2000/svg">
<g clip-path="url(#clip0_30_657)">
<path d="M20 10.5C20 10.3785 19.9978 10.2575 19.9936 10.1371C19.8025 4.78234 15.4014 0.5 10 0.5C4.59863 0.5 0.1975 4.78234 0.00648437 10.1371C0.0021875 10.2575 0 10.3785 0 10.5C0 16.0229 5.1368 20.1371 10 20.1371C14.9513 20.1371 20 16.0229 20 10.5Z" fill="#FF5876"/>
<path d="M10 19.7742C4.59871 19.7742 0.198359 15.4917 0.00726563 10.1371C0.00292969 10.2576 0 10.3785 0 10.5C0 16.0229 4.47715 20.5 10 20.5C15.5229 20.5 20 16.0229 20 10.5C20 10.3785 19.9971 10.2576 19.9928 10.1371C19.8016 15.4918 15.4013 19.7742 10 19.7742Z" fill="#E6485D"/>
<path d="M18.3367 10.137C18.1467 5.69692 14.4869 2.15552 10 2.15552C5.51309 2.15552 1.85332 5.69692 1.66332 10.137C1.65817 10.2574 1.66329 18.3136 10 18.3136C18.3367 18.3136 18.3418 10.2574 18.3367 10.137Z" fill="#E4EEF9"/>
<path d="M10.0002 18.1186C5.51334 18.1186 1.85416 14.5772 1.66408 10.1371C1.65893 10.2575 1.65576 10.3783 1.65576 10.5C1.65576 15.1085 5.3917 18.8444 10.0002 18.8444C14.6087 18.8444 18.3447 15.1085 18.3447 10.5C18.3447 10.3784 18.3415 10.2575 18.3363 10.1371C18.1463 14.5772 14.4871 18.1186 10.0002 18.1186Z" fill="#D5E0F2"/>
<path d="M13.031 7.57224C12.7931 7.33767 12.4102 7.34029 12.1756 7.5781L10.7563 9.01704L10.899 9.70208L11.5619 9.92294L13.0369 8.42759C13.2714 8.18978 13.2688 7.80681 13.031 7.57224Z" fill="#405B6C"/>
<path d="M9.14402 9.07215L5.9252 6.20371C5.67578 5.98145 5.29348 6.00348 5.07125 6.25289C4.84902 6.50227 4.87102 6.88461 5.12043 7.10684L8.40266 10.0318L9.0866 9.80363L9.14402 9.07215Z" fill="#405B6C"/>
<path d="M14.2827 14.3999C14.214 14.3999 14.145 14.3767 14.0883 14.329L10.2573 11.1112C10.1295 11.0037 10.1128 10.813 10.2203 10.6851C10.3277 10.5572 10.5184 10.5406 10.6463 10.648L14.4773 13.866C14.6052 13.9734 14.6218 14.1642 14.5144 14.292C14.4546 14.3632 14.3689 14.3999 14.2827 14.3999Z" fill="#86DCFF"/>
<path d="M8.40234 10.0318L8.96719 10.5351L9.69258 10.2886L9.65324 9.52617L9.14375 9.07214C8.78926 9.28515 8.52094 9.62644 8.40234 10.0318Z" fill="#2D4456"/>
<path d="M10.7566 9.01709L10.2764 9.50397V10.4597H11.0329L11.5622 9.92299C11.4168 9.52939 11.1266 9.20623 10.7566 9.01709Z" fill="#2D4456"/>
<path d="M10.9683 10.137C10.8214 9.74524 10.4434 9.46637 10.0002 9.46637C9.55711 9.46637 9.1791 9.74524 9.03215 10.137C8.98981 10.25 9.02934 11.1707 10.0002 11.1707C10.9711 11.1707 11.0107 10.25 10.9683 10.137Z" fill="#FF5876"/>
<path d="M9.99994 10.8078C9.55682 10.8078 9.17896 10.5289 9.03201 10.1371C8.98963 10.25 8.96631 10.3722 8.96631 10.5C8.96631 11.0708 9.42908 11.5336 9.9999 11.5336C10.5708 11.5336 11.0335 11.0708 11.0335 10.5C11.0335 10.3722 11.0102 10.25 10.9678 10.1371C10.8209 10.5288 10.4431 10.8078 9.99994 10.8078Z" fill="#E6485D"/>
<path d="M10.3028 4.1552V3.21664C10.3028 3.0493 10.1671 2.91364 9.99979 2.91364C9.83244 2.91364 9.69678 3.0493 9.69678 3.21664V4.1552C9.69678 4.32254 9.8324 4.45821 9.99979 4.45821C10.1672 4.45821 10.3028 4.32254 10.3028 4.1552Z" fill="#405B6C"/>
<path d="M9.69678 16.8448V17.7834C9.69678 17.9507 9.8324 18.0864 9.99979 18.0864C10.1672 18.0864 10.3028 17.9507 10.3028 17.7834V16.8448C10.3028 16.6775 10.1671 16.5418 9.99979 16.5418C9.83244 16.5418 9.69678 16.6775 9.69678 16.8448Z" fill="#405B6C"/>
<path d="M17.2831 10.803C17.4504 10.803 17.5861 10.6674 17.5861 10.5C17.5861 10.3327 17.4504 10.197 17.2831 10.197H16.3445C16.1772 10.197 16.0415 10.3327 16.0415 10.5C16.0415 10.6674 16.1772 10.803 16.3445 10.803H17.2831Z" fill="#405B6C"/>
<path d="M2.71658 10.197C2.5492 10.197 2.41357 10.3327 2.41357 10.5C2.41357 10.6674 2.5492 10.803 2.71658 10.803H3.65514C3.82252 10.803 3.95814 10.6674 3.95814 10.5C3.95814 10.3327 3.82248 10.197 3.65514 10.197H2.71658Z" fill="#405B6C"/>
</g>
<defs>
<clipPath id="clip0_30_657">
<rect width="20" height="20" fill="white" transform="translate(0 0.5)"/>
</clipPath>
</defs>
</svg>
