<svg width="20" height="21" viewBox="0 0 20 21" fill="none" xmlns="http://www.w3.org/2000/svg">
<g clip-path="url(#clip0_72_267)">
<path d="M17.9925 3.2074C17.9925 2.59697 17.4977 2.10213 16.8873 2.10205H1.10535C0.494883 2.10205 0 2.59693 0 3.2074V7.82861H17.9925V3.2074Z" fill="#E49542"/>
<path d="M17.7714 3.2074V7.82861H20.0002V3.2074C20.0002 2.59693 19.5053 2.10205 18.8948 2.10205H16.666C17.2765 2.10205 17.7714 2.59693 17.7714 3.2074Z" fill="#E28424"/>
<path d="M13.9839 4.86018C14.2049 4.38725 14.6797 4.08502 15.2017 4.08502H18.6559C19.3982 4.08502 20 4.68682 20 5.42916V17.7926C20 18.403 19.5051 18.8979 18.8946 18.8979H1.10535C0.494883 18.8979 0 18.403 0 17.7926V6.97951C0 6.23717 0.601797 5.63537 1.34414 5.63537H12.7661C13.2881 5.63533 13.7629 5.33311 13.9839 4.86018Z" fill="#F7ECAD"/>
<path d="M17.9925 17.7926V5.42916C17.9925 4.68686 17.3908 4.0851 16.6485 4.08502H15.2017C14.6797 4.08502 14.2049 4.38725 13.9839 4.86022C13.763 5.33315 13.2882 5.63537 12.7662 5.63537H1.34414C0.601797 5.63537 0 6.23717 0 6.97951V17.7926C0 18.403 0.494883 18.8979 1.10535 18.8979H16.8872C17.4977 18.8978 17.9925 18.403 17.9925 17.7926Z" fill="#FFD064"/>
<path d="M18.6556 4.08502H16.4268C17.1691 4.08502 17.7709 4.68682 17.7709 5.42916V17.7926C17.7709 18.403 17.276 18.8979 16.6655 18.8979H18.8944C19.5049 18.8979 19.9998 18.403 19.9998 17.7926V5.42916C19.9997 4.68682 19.3979 4.08502 18.6556 4.08502Z" fill="#FFC250"/>
<path d="M12.7559 12.2416C12.7559 10.0172 11.2615 8.14217 9.22199 7.56494C6.97422 7.93631 5.25977 9.88857 5.25977 12.2416C5.25977 14.5946 6.97422 16.5469 9.22199 16.9182C11.2615 16.341 12.7559 14.466 12.7559 12.2416Z" fill="white"/>
<path d="M10.0004 7.50098C9.62684 7.50098 9.26367 7.54484 8.91504 7.62656C11.0089 8.1182 12.5679 9.99773 12.5679 12.2416C12.5679 14.4855 11.0089 16.365 8.91504 16.8566C9.26363 16.9384 9.6268 16.9822 10.0003 16.9822C12.6185 16.9822 14.7409 14.8598 14.7409 12.2416C14.7409 9.62344 12.6185 7.50098 10.0004 7.50098Z" fill="#EAF2FF"/>
<path d="M11.0826 11.9866V10.1273C11.0826 9.96363 10.9499 9.83093 10.7862 9.83093H9.21271C9.049 9.83093 8.91627 9.96371 8.91635 10.1274L8.91709 11.9864C8.91717 12.1502 8.78443 12.2829 8.62072 12.2829H7.46689C7.19346 12.2829 7.06588 12.6216 7.27139 12.802L9.80474 15.0257C9.91658 15.1239 10.0839 15.1239 10.1958 15.0257L12.7291 12.802C12.9346 12.6216 12.807 12.2829 12.5336 12.2829H11.3789C11.2153 12.283 11.0826 12.1503 11.0826 11.9866Z" fill="#77CE8E"/>
</g>
<defs>
<clipPath id="clip0_72_267">
<rect width="20" height="20" fill="white" transform="translate(0 0.5)"/>
</clipPath>
</defs>
</svg>
