<?xml version="1.0" encoding="UTF-8"?><svg id="_圖層_2" xmlns="http://www.w3.org/2000/svg" viewBox="0 0 24 24"><defs><style>.cls-1{fill:none;}.cls-2{fill:#fff;}</style></defs><g id="_頁尾"><path class="cls-2" d="M19.12,17.54l-.75-4.29c-.12-.34-.44-.52-.79-.5l-11.36.03c-.35.1-.46.31-.57.63-.38,1.22-.42,2.86-.7,4.13l-4.39-.04c-.29-.12-.49-.38-.5-.7.15-2.09-.19-4.43,0-6.49.11-1.25,1.02-2.16,2.25-2.34h19.36c1.22.11,2.11.97,2.33,2.15l-.04,6.93c-.11.27-.32.44-.61.49-1.25.2-2.94-.13-4.23,0Z"/><path class="cls-2" d="M7.42,14.27l9.31.03c.23.17.33.32.42.58.59,1.76.69,4.02,1.26,5.84.07.51-.44.95-.92.92-3.47-.25-7.37.32-10.78,0-.97-.09-1.01-.44-.92-1.32.19-1.76.93-3.73,1.17-5.51l.47-.53Z"/><path class="cls-2" d="M18.42,7.16H5.65V2.92c0-.33.56-.53.84-.55,3.55-.32,7.58.25,11.18,0,.24-.06.75.36.75.55v4.24Z"/><rect class="cls-1" width="24" height="24"/></g></svg>