<svg width="16" height="16" viewBox="0 0 16 16" fill="none" xmlns="http://www.w3.org/2000/svg">
<g clip-path="url(#clip0_111_1553)">
<path d="M15.3228 8.59369L14.5285 12.8258C14.4128 13.4415 14.1737 13.9761 13.8375 14.3719C13.4293 14.8518 12.8987 15.1056 12.3028 15.1056H6.91284C6.7415 15.1056 6.57463 15.085 6.41425 15.046V6.10466C7.85797 4.57413 9.24181 2.62607 9.82812 1.20394C9.90531 1.01666 10.0877 0.894409 10.2903 0.894409C11.1809 0.894409 11.8543 1.26544 12.1869 1.93913C12.4819 2.53722 12.4916 3.34035 12.2146 4.26178C12.0333 4.86544 11.7358 5.4995 11.3406 6.1296H13.0974C13.7615 6.1296 14.4452 6.4566 14.8821 6.98291C15.2729 7.45388 15.4293 8.02585 15.3228 8.59369ZM4.23206 5.84791H2.09141C1.29356 5.84791 0.644531 6.49694 0.644531 7.29475V13.6588C0.644531 14.4565 1.29356 15.1056 2.09141 15.1056H4.23206C4.72006 15.1056 5.15216 14.8624 5.41428 14.4911V6.46241C5.15225 6.09097 4.72013 5.84791 4.23206 5.84791Z" fill="white"/>
</g>
<defs>
<clipPath id="clip0_111_1553">
<rect width="16" height="16" fill="white"/>
</clipPath>
</defs>
</svg>
