<?xml version="1.0" encoding="UTF-8"?><svg id="_圖層_2" xmlns="http://www.w3.org/2000/svg" viewBox="0 0 24 24"><defs><style>.cls-1{fill:none;}.cls-2{fill:#fff;}</style></defs><g id="_頁尾"><path class="cls-2" d="M2.62,8.87c.19-.03.34-.03.51.09l8.83,6.07,8.91-6.07c.51-.29,1.18.08,1.21.66-.19,2.79.24,5.88,0,8.63-.08.87-.72,1.47-1.59,1.5H3.51c-.87-.03-1.51-.63-1.59-1.5-.24-2.75.19-5.85,0-8.63.02-.39.34-.7.71-.75Z"/><path class="cls-2" d="M2.53,4.24l19.07.05c.51.28.67.94.25,1.39l-9.89,6.27L2.42,5.77c-.67-.47-.69-1.19.11-1.52Z"/><rect class="cls-1" width="24" height="24"/></g></svg>