<svg width="30" height="30" viewBox="0 0 30 30" fill="none" xmlns="http://www.w3.org/2000/svg">
<path d="M26.25 1.875H3.75C2.19937 1.875 0.9375 3.13687 0.9375 4.6875V19.6875C0.9375 21.2381 2.19937 22.5 3.75 22.5H6.5625V27.1875C6.5625 27.5484 6.76969 27.8756 7.09312 28.0322C7.22344 28.0941 7.36219 28.125 7.5 28.125C7.70906 28.125 7.91625 28.0556 8.08594 27.9197L14.8603 22.5H26.25C27.8006 22.5 29.0625 21.2381 29.0625 19.6875V4.6875C29.0625 3.13687 27.8006 1.875 26.25 1.875ZM15 15H7.5C6.98156 15 6.5625 14.58 6.5625 14.0625C6.5625 13.545 6.98156 13.125 7.5 13.125H15C15.5184 13.125 15.9375 13.545 15.9375 14.0625C15.9375 14.58 15.5184 15 15 15ZM22.5 11.25H7.5C6.98156 11.25 6.5625 10.83 6.5625 10.3125C6.5625 9.795 6.98156 9.375 7.5 9.375H22.5C23.0184 9.375 23.4375 9.795 23.4375 10.3125C23.4375 10.83 23.0184 11.25 22.5 11.25Z" fill="#564B4F"/>
</svg>
