<svg width="30" height="30" viewBox="0 0 30 30" fill="none" xmlns="http://www.w3.org/2000/svg">
<g clip-path="url(#clip0_110_1541)">
<path d="M11.0629 18.0481H5.55664V24.5003H11.0629V18.0481Z" fill="#564B4F"/>
<path d="M29.1098 0.637939H0.890215C0.398789 0.637939 0 1.03679 0 1.52815V28.4718C0 28.9632 0.398789 29.362 0.890215 29.362H29.1098C29.6012 29.362 30 28.9632 30 28.4718V1.52815C30 1.03679 29.6012 0.637939 29.1098 0.637939ZM21.1151 5.92046C21.1151 4.69081 22.2024 4.25399 23.1335 4.25399C23.511 4.25399 24.7418 4.31276 24.7418 5.0647C24.7418 5.33235 24.559 5.83204 24.1181 5.83204C23.7869 5.83204 23.686 5.55905 23.1335 5.55905C22.8047 5.55905 22.5923 5.65878 22.5923 5.81247C22.5923 6.30384 24.8712 6.3264 24.8712 8.20597C24.8712 10.7336 20.9858 10.1858 20.9858 8.86767C20.9858 8.55606 21.2517 8.0855 21.6529 8.0855C21.8534 8.0855 22.0095 8.20597 22.1603 8.32169C22.349 8.46712 22.5442 8.61782 22.8748 8.61782C22.9276 8.61782 23.3941 8.6095 23.3941 8.3211C23.3941 7.65935 21.1151 7.68483 21.1151 5.92046ZM15.2178 4.63497L16.1193 7.67593L16.5341 5.90148C16.6617 5.32579 17.8303 5.32403 17.959 5.90323L18.3739 7.67593L19.2754 4.63321C19.467 3.96138 20.9109 4.39644 20.6861 5.07062L19.2558 9.4546C19.0172 10.1502 17.5952 10.0908 17.4463 9.43919L17.2463 8.52642L17.0463 9.43737C16.8938 10.1068 15.4505 10.1335 15.2363 9.45278L13.8066 5.06997C13.5822 4.39579 15.0249 3.96021 15.2178 4.63497ZM9.80121 4.82013C9.80121 4.51743 10.0819 4.2973 10.4683 4.2973H13.0273C13.7229 4.2973 13.7092 5.63083 13.0273 5.63083H11.2789V6.48958H12.1787C12.4778 6.48958 12.695 6.74892 12.695 7.10622C12.695 7.40534 12.5176 7.70856 12.1787 7.70856H11.2789V8.57446H13.0273C13.7098 8.57446 13.7223 9.908 13.0273 9.908H10.4683C10.0819 9.908 9.80121 9.68839 9.80121 9.38517V4.82013ZM4.87717 4.82013C4.87717 4.50735 5.17447 4.2973 5.61604 4.2973C6.10623 4.2973 6.30627 4.38812 6.60059 4.95366L7.4291 6.53405V4.81304C7.4291 4.12163 8.90684 4.12104 8.90684 4.81304V9.38517C8.90684 9.69319 8.60297 9.908 8.16797 9.908C7.90389 9.908 7.57629 9.86347 7.38639 9.51337L6.35496 7.63503V9.38517C6.35496 10.0831 4.87723 10.0837 4.87723 9.38517L4.87717 4.82013ZM12.8445 25.3899C12.8445 25.8819 12.4457 26.2801 11.9543 26.2801H4.66705C4.17568 26.2801 3.77684 25.8819 3.77684 25.3899V17.1579C3.77684 16.6659 4.17563 16.2676 4.66705 16.2676H11.9543C12.4457 16.2676 12.8445 16.6659 12.8445 17.1579V25.3899ZM24.743 25.7097H17.0843C16.5929 25.7097 16.1941 25.3109 16.1941 24.8195C16.1941 24.3275 16.5929 23.9293 17.0843 23.9293H24.743C25.2344 23.9293 25.6332 24.3275 25.6332 24.8195C25.6332 25.3109 25.2344 25.7097 24.743 25.7097ZM24.743 21.873H17.0843C16.5929 21.873 16.1941 21.4742 16.1941 20.9827C16.1941 20.4913 16.5929 20.0925 17.0843 20.0925H24.743C25.2344 20.0925 25.6332 20.4913 25.6332 20.9827C25.6332 21.4742 25.2344 21.873 24.743 21.873ZM24.743 18.0362H17.0843C16.5929 18.0362 16.1941 17.638 16.1941 17.146C16.1941 16.6546 16.5929 16.2558 17.0843 16.2558H24.743C25.2344 16.2558 25.6332 16.6545 25.6332 17.146C25.6332 17.638 25.2344 18.0362 24.743 18.0362ZM24.7603 13.6463H4.66705C4.17568 13.6463 3.77684 13.2481 3.77684 12.7561C3.77684 12.2647 4.17563 11.8659 4.66705 11.8659H24.7603C25.2516 11.8659 25.6505 12.2646 25.6505 12.7561C25.6505 13.248 25.2516 13.6463 24.7603 13.6463Z" fill="#564B4F"/>
</g>
<defs>
<clipPath id="clip0_110_1541">
<rect width="30" height="30" fill="white"/>
</clipPath>
</defs>
</svg>
