<?xml version="1.0" encoding="UTF-8"?><svg id="_圖層_2" xmlns="http://www.w3.org/2000/svg" viewBox="0 0 24 24"><defs><style>.cls-1{fill:none;}.cls-2{fill:#fff;}</style></defs><g id="_頁尾"><path class="cls-2" d="M5.74,1.97c-.91.1-1.77.38-2.38,1.08-2.36,2.69-1.36,5.66-.05,8.55,1.53,3.38,5.67,7.53,9.03,9.06,2.9,1.32,5.84,2.33,8.56,0,.57-.48.76-.85.95-1.57.24-.92.47-1.47-.41-2.03-.79-.5-1.77-.94-2.59-1.42-.43-.24-1.19-.9-1.64-.88-.77.03-1.77,1.78-2.36,2.29-.56.48-.76.31-1.35.02-2.74-1.38-5.23-3.87-6.6-6.62-.33-.67-.4-.84.16-1.42s2.33-1.55,2.15-2.46l-2.5-4.35c-.25-.34-.59-.29-.96-.25Z"/><path class="cls-2" d="M5.74,1.97c.37-.04.71-.08.96.25l2.5,4.35c.18.91-1.58,1.86-2.15,2.46s-.49.75-.16,1.42c1.36,2.75,3.86,5.24,6.6,6.62.59.3.79.46,1.35-.02.59-.5,1.59-2.25,2.36-2.29.45-.02,1.21.64,1.64.88.83.47,1.81.92,2.59,1.42.88.56.65,1.12.41,2.03-.19.72-.38,1.09-.95,1.57-2.72,2.32-5.67,1.31-8.56,0-3.37-1.54-7.51-5.69-9.03-9.06-1.3-2.89-2.31-5.87.05-8.55.61-.7,1.47-.98,2.38-1.08Z"/><rect class="cls-1" width="24" height="24"/></g></svg>