<svg width="12" height="12" viewBox="0 0 12 12" fill="none" xmlns="http://www.w3.org/2000/svg">
<g clip-path="url(#clip0_91_1465)">
<path d="M10.2541 8.30592C9.5434 7.69805 8.82214 7.32985 8.12016 7.93679L7.70099 8.30362C7.3943 8.5699 6.82409 9.81409 4.61944 7.27797C2.41525 4.74506 3.72693 4.35068 4.03407 4.08669L4.45554 3.7194C5.15384 3.11108 4.89032 2.34529 4.38667 1.55699L4.08274 1.07952C3.5768 0.293062 3.02587 -0.223437 2.32572 0.383966L1.94742 0.714525C1.63798 0.939948 0.773012 1.67269 0.563199 3.06471C0.310688 4.73496 1.10724 6.64761 2.93221 8.7462C4.75488 10.8457 6.53944 11.9003 8.22988 11.8819C9.63476 11.8668 10.4832 11.1129 10.7486 10.8388L11.1282 10.5078C11.8266 9.90087 11.3927 9.2829 10.6815 8.67366L10.2541 8.30592Z" fill="white"/>
</g>
<defs>
<clipPath id="clip0_91_1465">
<rect width="11.7647" height="11.7647" fill="white" transform="translate(0.117188 0.117676)"/>
</clipPath>
</defs>
</svg>
