<?xml version="1.0" encoding="UTF-8"?><svg id="_圖層_2" xmlns="http://www.w3.org/2000/svg" viewBox="0 0 24 24"><defs><style>.cls-1{fill:none;}.cls-2{fill:#fff;}</style></defs><g id="_頁尾"><path class="cls-2" d="M11.21.73c5.48-.53,9.89,4.39,8.81,9.79-.65,3.25-3.08,6.96-5.06,9.59-.65.86-1.54,2.1-2.28,2.83-.29.29-.5.45-.93.31-.25-.08-1.16-1.22-1.4-1.51-2.45-2.96-6.48-8.8-6.54-12.7-.06-4.2,3.21-7.91,7.4-8.32ZM16.14,8.89c0-2.27-1.84-4.11-4.11-4.11s-4.11,1.84-4.11,4.11,1.84,4.11,4.11,4.11,4.11-1.84,4.11-4.11Z"/><rect class="cls-1" width="24" height="24"/></g></svg>