<svg width="20" height="21" viewBox="0 0 20 21" fill="none" xmlns="http://www.w3.org/2000/svg">
<g clip-path="url(#clip0_30_679)">
<path d="M19.9141 19.6832L16.3985 11.4801C16.3061 11.2646 16.0942 11.125 15.8598 11.125H4.14107C3.9067 11.125 3.69491 11.2646 3.60259 11.4801L0.0869666 19.6832C-0.0784386 20.0691 0.204764 20.5 0.625449 20.5H19.3754C19.7952 20.5 20.0798 20.0699 19.9141 19.6832Z" fill="#E0F4FE"/>
<path d="M19.3755 20.5H10.0005V11.125H15.8599C16.0942 11.125 16.306 11.2648 16.3985 11.4801L19.9141 19.6832C20.0798 20.0699 19.7954 20.5 19.3755 20.5Z" fill="#BCDCFE"/>
<path d="M2.52747 17.1577L2.03735 18.1059C2.03735 18.1059 1.64658 19.0181 1.51367 19.3281H8.58582L9.34433 19.2372L5.67139 15.5458L2.52747 17.1577Z" fill="#159BE1"/>
<path d="M17.3976 16.9645L17.211 16.3508C17.211 16.3508 16.3884 14.4316 15.4735 12.2969H13.3769L11.9582 12.3225L5.67139 15.5458L9.34433 19.2372L10.2429 19.3281H11.4621L12.8641 19.2889L17.3976 16.9645Z" fill="#5DC983"/>
<path d="M17.3978 16.9644L12.8643 19.2891L11.4623 19.3281H10.2431L10.0005 19.3036V13.3265L11.9583 12.3227L12.9061 12.3054L13.3771 12.2969H15.4735C16.3884 14.4316 17.211 16.3508 17.211 16.3508L17.3978 16.9644Z" fill="#0EAB61"/>
<path d="M4.52765 12.2969C4.16846 13.135 2.76358 16.4125 2.76358 16.4125L2.52783 17.1577L11.9584 12.3225L10.8054 12.2969H4.52765Z" fill="#0EAB61"/>
<path d="M11.9583 12.3227L10.0005 13.3265V12.2969H10.8052L11.9583 12.3227Z" fill="#0EAB61"/>
<path d="M17.3978 16.9645L12.8643 19.2889L14.0103 19.3281H18.4868C18.0724 18.3606 17.674 17.431 17.674 17.431L17.3978 16.9645Z" fill="#159BE1"/>
<path d="M6.65311 15.7383L10.2429 19.3281H8.58578L5.55692 16.2993L2.04053 18.0984L2.76318 16.4125C2.85931 16.3633 10.7089 12.346 10.805 12.2969H13.3769L6.65311 15.7383Z" fill="#FED941"/>
<path d="M10.0005 19.0855L10.2431 19.3281H10.0005V19.0855Z" fill="#FEB99E"/>
<path d="M13.3771 12.2969L12.6752 12.6562L10.0005 14.0249V12.7086C10.4818 12.4624 10.7869 12.3062 10.8052 12.2969H13.3771Z" fill="#FCBE29"/>
<path d="M17.6741 17.4308L14.0105 19.3281H11.4624L17.2112 16.3508L17.6741 17.4308Z" fill="#FCBE29"/>
<path d="M10.0005 0.5C7.13626 0.5 4.72705 2.59961 4.72705 6.24219C4.72705 9.93451 9.36115 15.3061 9.55844 15.533C9.7916 15.8012 10.2091 15.8017 10.4427 15.533C10.64 15.3061 15.2739 9.93451 15.2739 6.24219C15.2739 2.63318 12.8206 0.5 10.0005 0.5ZM10.0005 7.53125C9.03125 7.53125 8.24268 6.74268 8.24268 5.77344C8.24268 4.8042 9.03125 4.01562 10.0005 4.01562C10.9697 4.01562 11.7583 4.8042 11.7583 5.77344C11.7583 6.74268 10.9697 7.53125 10.0005 7.53125Z" fill="#EE3616"/>
<path d="M10.0005 0.5V4.01562C10.9697 4.01562 11.7583 4.80435 11.7583 5.77344C11.7583 6.74252 10.9697 7.53125 10.0005 7.53125V15.7344C10.1635 15.7344 10.326 15.6672 10.4427 15.5328C12.1709 13.5461 15.2739 9.21887 15.2739 6.24219C15.2739 2.63318 12.8205 0.5 10.0005 0.5Z" fill="#CB0010"/>
</g>
<defs>
<clipPath id="clip0_30_679">
<rect width="20" height="20" fill="white" transform="translate(0 0.5)"/>
</clipPath>
</defs>
</svg>
