<?xml version="1.0" encoding="UTF-8"?><svg id="_圖層_2" xmlns="http://www.w3.org/2000/svg" viewBox="0 0 60.63 84.5"><defs><style>.cls-1{fill:#ffb288;}.cls-2{fill:#fff;}.cls-3{fill:#bc6eea;}.cls-4{fill:#e35973;}</style></defs><g id="_內容"><path class="cls-2" d="M22.06,83.99c-.14-.03-.26-.11-.34-.23-.06-.1-5.91-9.82-11.4-21.62C2.93,46.23-.32,34.33.67,26.75c.02-.14.1-.27.21-.35L38.68.59c.08-.06.18-.09.28-.09.08,0,.17.02.24.06.17.09.26.27.26.46,0,.14-.46,14.38,8.44,32.81,7.7,15.95,12.04,20.39,12.08,20.43.1.1.15.24.15.39,0,.14-.08.28-.19.36l-37.48,28.88c-.09.07-.2.1-.31.1-.03,0-.06,0-.09,0Z"/><path class="cls-4" d="M38.97,1s-.57,14.27,8.49,33.05c7.85,16.26,12.18,20.57,12.18,20.57l-37.48,28.88S-1.18,44.85,1.17,26.81L38.97,1M38.97,0c-.2,0-.39.06-.56.17L.6,25.99c-.24.16-.39.41-.43.7-2.37,18.18,20.16,55.74,21.12,57.33.15.24.39.41.67.47.06.01.12.02.18.02.22,0,.43-.07.61-.21l37.48-28.88c.23-.18.37-.44.39-.73s-.09-.57-.29-.77c-.04-.04-4.35-4.47-11.99-20.3C39.52,15.31,39.96,1.18,39.97,1.04c.01-.38-.18-.73-.52-.91-.15-.08-.32-.13-.48-.13h0ZM38.97,2h0,0Z"/><path class="cls-3" d="M29.68,20.27c-.5-1.99-.68-4.02-.85-6.06-.34.15-.67.3-1.01.45,1.28,1.41,2.55,2.83,3.83,4.24.49.54,1.38-.17.89-.72-1.28-1.41-2.55-2.83-3.83-4.24-.39-.43-1.06-.12-1.01.45.16,2.04.34,4.07.85,6.06.18.71,1.31.54,1.13-.17h0Z"/><path class="cls-3" d="M29.48,18.37c.31-.4.8-.54,1.26-.68.7-.22.24-1.27-.46-1.05-.69.21-1.28.48-1.73,1.06-.45.58.48,1.25.93.67h0Z"/><path class="cls-3" d="M30.78,14c.54.62,1.08,1.24,1.62,1.86.48.55,1.37-.16.89-.72-.54-.62-1.08-1.24-1.62-1.86-.48-.55-1.37.16-.89.72h0Z"/><path class="cls-3" d="M31.47,15.69c.52-.49,1.04-.98,1.56-1.47.53-.5-.18-1.4-.72-.89-.52.49-1.04.98-1.56,1.47-.53.5.18,1.4.72.89h0Z"/><path class="cls-1" d="M25.74,13.96c-1.17,2.55-.99,6.14,1.2,8.14,2.35,2.16,5.58.86,7.25-1.46,1.8-2.48,2.11-6.1-.14-8.42-2.02-2.08-5.15-1.86-7.01.25-.49.55.45,1.21.93.67,1.99-2.25,5.25-1.19,6.24,1.43.79,2.09-.01,4.48-1.5,6.04-1.79,1.89-4.53,1.99-5.85-.46-.97-1.8-.89-3.96-.06-5.78.31-.67-.76-1.07-1.07-.4h0Z"/><path class="cls-3" d="M38.05,21.42s-.04.03-.06.04c-15.45,6.29-30.93,20.74-31.09,20.88,0,0-.01,0-.01.01-.1.08-.25.07-.34-.02-.1-.1-.09-.26.01-.36.16-.15,15.7-14.66,31.24-20.98.13-.05.28,0,.33.14.04.11.01.22-.07.29Z"/><path class="cls-3" d="M40.01,25.48s-.04.03-.06.04c-15.45,6.29-30.93,20.74-31.09,20.88-.12.12-.26.09-.36-.01-.1-.1-.09-.26.01-.36.16-.15,15.7-14.66,31.24-20.98.13-.05.28,0,.33.14.04.11.01.22-.07.29Z"/><path class="cls-3" d="M41.58,30.43s-.04.03-.06.04c-15.45,6.29-30.93,20.74-31.09,20.88-.13.12-.26.09-.36-.01-.1-.1-.09-.26.01-.36.15-.15,15.71-14.66,31.24-20.98.13-.05.28,0,.33.14.04.11.01.22-.07.29Z"/><path class="cls-3" d="M43.92,34.96s-.04.03-.06.04c-15.45,6.29-30.93,20.74-31.09,20.88-.12.12-.26.09-.36-.01-.1-.1-.09-.26.01-.36.16-.15,15.71-14.66,31.24-20.98.13-.05.28,0,.33.14.04.11.01.22-.07.29Z"/><path class="cls-3" d="M46.24,39.73s-.04.03-.06.04c-15.45,6.29-30.93,20.74-31.09,20.88,0,0,0,0-.01.01-.1.08-.25.07-.34-.02-.1-.1-.09-.26.01-.36.16-.15,15.7-14.66,31.24-20.98.13-.05.28,0,.33.14.04.11.01.22-.07.29Z"/><path class="cls-3" d="M49.09,45.3s-.04.03-.06.04c-15.45,6.29-30.93,20.74-31.09,20.88-.12.12-.26.09-.36-.01-.1-.1-.09-.26.01-.36.16-.14,15.71-14.66,31.24-20.98.13-.05.28,0,.33.14.04.11.01.22-.07.29Z"/></g></svg>