<svg width="17" height="17" viewBox="0 0 17 17" fill="none" xmlns="http://www.w3.org/2000/svg">
<g clip-path="url(#clip0_34_3254)">
<path d="M10.0674 10.9861L10.4606 11.3794L10.9203 11.8367L11.0974 12.0151L12.0146 11.0973L10.9862 10.0673L10.0674 10.9861Z" fill="#5D6D7E"/>
<path d="M12.9495 11.0912L16.1147 14.2562C16.3528 14.4936 16.5005 14.8232 16.4995 15.1857C16.4995 15.5488 16.3527 15.8781 16.1147 16.1165C15.8772 16.3536 15.5484 16.4999 15.1853 16.4999C14.8223 16.4999 14.4939 16.3536 14.2558 16.1157L11.0908 12.9504L12.9495 11.0912Z" fill="#FF8E31"/>
<path d="M12.5137 11.5287L12.7709 11.271L15.9363 14.4364C16.1361 14.6364 16.246 14.9024 16.2459 15.1856C16.2459 15.4695 16.1356 15.736 15.9363 15.9363C15.8999 15.9712 15.8533 15.9888 15.8073 15.9888C15.7604 15.9888 15.714 15.9712 15.6779 15.9358C15.6074 15.8644 15.6074 15.75 15.6779 15.6791C15.8099 15.5476 15.882 15.3714 15.882 15.1851C15.8825 14.9996 15.81 14.8247 15.6789 14.6938L12.5137 11.5287Z" fill="#FECE59"/>
<path d="M11.0907 12.9504L12.9496 11.091L12.811 10.952C12.7273 10.868 12.6129 10.817 12.4857 10.817C12.3577 10.817 12.243 10.8678 12.1601 10.9514L10.9513 12.1609C10.8683 12.2433 10.8164 12.358 10.8164 12.4861C10.8164 12.6124 10.8682 12.7285 10.9513 12.8105L11.0907 12.9504Z" fill="#34495E"/>
<path d="M0.5 6.44265C0.5 3.16121 3.16072 0.500183 6.44281 0.500183C9.72522 0.500183 12.3858 3.16137 12.3858 6.44265C12.3858 9.72506 9.72491 12.3856 6.44281 12.3864C3.16072 12.3856 0.5 9.72496 0.5 6.44265Z" fill="#34495E"/>
<path d="M6.44318 11.7424C9.36927 11.7424 11.7426 9.36996 11.7426 6.44252C11.7426 3.51677 9.36934 1.14355 6.44318 1.14355C3.51662 1.14362 1.14355 3.51668 1.14355 6.44259C1.14355 9.36996 3.51662 11.7424 6.44318 11.7424Z" fill="#5D6D7E"/>
<path d="M6.44282 11.3182C9.13491 11.3182 11.318 9.13597 11.318 6.44254C11.318 3.7511 9.13482 1.5675 6.44282 1.5675C3.75082 1.5675 1.56738 3.7511 1.56738 6.44254C1.56738 9.13582 3.75026 11.3182 6.44282 11.3182Z" fill="#CEE2F2"/>
<path d="M6.57067 2.36792C6.48764 2.24473 6.34492 2.16761 6.18786 2.17654C5.51489 2.21742 4.87889 2.40695 4.2977 2.74439C4.09308 2.86408 4.02289 3.12783 4.14211 3.33342C4.26129 3.53645 4.52539 3.6087 4.72939 3.48789C5.19298 3.22045 5.70042 3.06851 6.23836 3.03573C6.47467 3.02342 6.65645 2.81958 6.64179 2.58342C6.63908 2.50158 6.61164 2.42798 6.57067 2.36792Z" fill="white"/>
<path d="M3.81075 3.78138C3.78788 3.74707 3.75803 3.71522 3.72531 3.6881C3.54075 3.53713 3.27013 3.5665 3.12091 3.75091C2.68172 4.2901 2.37947 4.937 2.24603 5.62547C2.08819 6.44316 2.17075 7.28035 2.48428 8.04747C2.57566 8.2686 2.82716 8.37244 3.04653 8.28203C3.26653 8.19291 3.37135 7.94235 3.28125 7.72122C3.03125 7.10947 2.96638 6.44138 3.09335 5.78875C3.19719 5.23916 3.43863 4.72316 3.78894 4.29285C3.91075 4.14303 3.91397 3.93282 3.81075 3.78138Z" fill="white"/>
</g>
<defs>
<clipPath id="clip0_34_3254">
<rect width="16" height="16" fill="white" transform="translate(0.5 0.5)"/>
</clipPath>
</defs>
</svg>
