<?xml version="1.0" encoding="UTF-8"?><svg id="_圖層_2" xmlns="http://www.w3.org/2000/svg" viewBox="0 0 19.46 24.9"><defs><style>.cls-1{fill:#888;}</style></defs><g id="_選單"><path class="cls-1" d="M19.13,21.63l-3.47-5.48c1.23-1.14,2.15-2.6,2.62-4.25.69-2.39.4-4.91-.81-7.09S14.29,1.05,11.9.36C9.5-.32,6.98-.03,4.81,1.17,2.63,2.38,1.05,4.36.36,6.76c-.69,2.39-.4,4.91.81,7.09s3.19,3.75,5.58,4.44c.85.24,1.72.37,2.58.37s1.77-.14,2.63-.4l3.57,5.65c.4.64,1.09.99,1.8.99.39,0,.78-.11,1.13-.33.99-.63,1.29-1.94.66-2.93ZM4.89,11.78c-.66-1.18-.81-2.55-.44-3.85.37-1.3,1.23-2.38,2.42-3.04.78-.43,1.62-.63,2.45-.63,1.78,0,3.52.94,4.44,2.61,1.36,2.44.47,5.54-1.98,6.89-2.44,1.36-5.54.47-6.89-1.98Z"/></g></svg>