<svg width="16" height="16" viewBox="0 0 16 16" fill="none" xmlns="http://www.w3.org/2000/svg">
<g clip-path="url(#clip0_111_1556)">
<path d="M0.677219 7.40631L1.47153 3.17418C1.58719 2.55847 1.82628 2.02393 2.16253 1.62812C2.57072 1.14818 3.10128 0.894403 3.69716 0.894403H9.08716C9.2585 0.894403 9.42537 0.914998 9.58575 0.953998V9.89534C8.14203 11.4259 6.75819 13.3739 6.17188 14.7961C6.09469 14.9833 5.91225 15.1056 5.70969 15.1056C4.81909 15.1056 4.14569 14.7346 3.81313 14.0609C3.51813 13.4628 3.50844 12.6597 3.78541 11.7382C3.96666 11.1346 4.26416 10.5005 4.65944 9.8704H2.90259C2.23847 9.8704 1.55481 9.5434 1.11788 9.01709C0.727125 8.54612 0.570657 7.97415 0.677219 7.40631ZM11.7679 10.1521H13.9086C14.7064 10.1521 15.3555 9.50306 15.3555 8.70525V2.34125C15.3555 1.54353 14.7064 0.894372 13.9086 0.894372H11.7679C11.2799 0.894372 10.8478 1.13756 10.5857 1.5089V9.53759C10.8478 9.90903 11.2799 10.1521 11.7679 10.1521Z" fill="white"/>
</g>
<defs>
<clipPath id="clip0_111_1556">
<rect width="16" height="16" fill="white" transform="matrix(-1 0 0 -1 16 16)"/>
</clipPath>
</defs>
</svg>
